<svg xmlns="http://www.w3.org/2000/svg" version="1.1" xmlns:xlink="http://www.w3.org/1999/xlink" xmlns:svgjs="http://svgjs.dev/svgjs" width="560" height="560" preserveAspectRatio="none" viewBox="0 0 560 560"><g mask="url(&quot;#SvgjsMask1225&quot;)" fill="none"><rect width="560" height="560" x="0" y="0" fill="rgba(193, 18, 31, 0.58)"></rect><use xlink:href="#SvgjsPath1226" x="30" y="30" stroke="rgba(255, 151, 159, 1)"></use><use xlink:href="#SvgjsPath1226" x="30" y="90" stroke="rgba(255, 141, 150, 1)"></use><use xlink:href="#SvgjsPath1226" x="30" y="150" stroke="rgba(255, 151, 159, 1)"></use><use xlink:href="#SvgjsPath1227" x="30" y="210" stroke="rgba(255, 151, 159, 1)"></use><use xlink:href="#SvgjsPath1226" x="30" y="270" stroke="rgba(255, 141, 150, 1)"></use><use xlink:href="#SvgjsPath1228" x="30" y="330" stroke="rgba(255, 151, 159, 1)"></use><use xlink:href="#SvgjsPath1227" x="30" y="390" stroke="rgba(255, 151, 159, 1)"></use><use xlink:href="#SvgjsPath1229" x="30" y="450" stroke="rgba(193, 18, 31, 1)"></use><use xlink:href="#SvgjsPath1230" x="30" y="510" stroke="rgba(255, 151, 159, 1)" stroke-width="3"></use><use xlink:href="#SvgjsPath1230" x="30" y="570" stroke="rgba(255, 141, 150, 1)" stroke-width="3"></use><use xlink:href="#SvgjsPath1226" x="90" y="30" stroke="rgba(255, 151, 159, 1)"></use><use xlink:href="#SvgjsPath1231" x="90" y="90" stroke="rgba(193, 18, 31, 1)"></use><use xlink:href="#SvgjsPath1227" x="90" y="150" stroke="rgba(193, 18, 31, 1)"></use><use xlink:href="#SvgjsPath1226" x="90" y="210" stroke="rgba(255, 151, 159, 1)"></use><use xlink:href="#SvgjsPath1227" x="90" y="270" stroke="rgba(255, 151, 159, 1)"></use><use xlink:href="#SvgjsPath1227" x="90" y="330" stroke="rgba(255, 141, 150, 1)"></use><use xlink:href="#SvgjsPath1226" x="90" y="390" stroke="rgba(255, 141, 150, 1)"></use><use xlink:href="#SvgjsPath1227" x="90" y="450" stroke="rgba(193, 18, 31, 1)"></use><use xlink:href="#SvgjsPath1228" x="90" y="510" stroke="rgba(255, 141, 150, 1)"></use><use xlink:href="#SvgjsPath1231" x="90" y="570" stroke="rgba(255, 141, 150, 1)"></use><use xlink:href="#SvgjsPath1226" x="150" y="30" stroke="rgba(193, 18, 31, 1)"></use><use xlink:href="#SvgjsPath1227" x="150" y="90" stroke="rgba(193, 18, 31, 1)"></use><use xlink:href="#SvgjsPath1226" x="150" y="150" stroke="rgba(255, 151, 159, 1)"></use><use xlink:href="#SvgjsPath1228" x="150" y="210" stroke="rgba(193, 18, 31, 1)"></use><use xlink:href="#SvgjsPath1226" x="150" y="270" stroke="rgba(193, 18, 31, 1)"></use><use xlink:href="#SvgjsPath1231" x="150" y="330" stroke="rgba(255, 141, 150, 1)"></use><use xlink:href="#SvgjsPath1227" x="150" y="390" stroke="rgba(255, 151, 159, 1)"></use><use xlink:href="#SvgjsPath1227" x="150" y="450" stroke="rgba(255, 141, 150, 1)"></use><use xlink:href="#SvgjsPath1227" x="150" y="510" stroke="rgba(255, 151, 159, 1)"></use><use xlink:href="#SvgjsPath1226" x="150" y="570" stroke="rgba(255, 141, 150, 1)"></use><use xlink:href="#SvgjsPath1229" x="210" y="30" stroke="rgba(193, 18, 31, 1)"></use><use xlink:href="#SvgjsPath1227" x="210" y="90" stroke="rgba(255, 141, 150, 1)"></use><use xlink:href="#SvgjsPath1231" x="210" y="150" stroke="rgba(193, 18, 31, 1)"></use><use xlink:href="#SvgjsPath1226" x="210" y="210" stroke="rgba(193, 18, 31, 1)"></use><use xlink:href="#SvgjsPath1230" x="210" y="270" stroke="rgba(193, 18, 31, 1)" stroke-width="3"></use><use xlink:href="#SvgjsPath1227" x="210" y="330" stroke="rgba(255, 151, 159, 1)"></use><use xlink:href="#SvgjsPath1228" x="210" y="390" stroke="rgba(193, 18, 31, 1)"></use><use xlink:href="#SvgjsPath1227" x="210" y="450" stroke="rgba(255, 151, 159, 1)"></use><use xlink:href="#SvgjsPath1227" x="210" y="510" stroke="rgba(255, 151, 159, 1)"></use><use xlink:href="#SvgjsPath1227" x="210" y="570" stroke="rgba(193, 18, 31, 1)"></use><use xlink:href="#SvgjsPath1229" x="270" y="30" stroke="rgba(255, 151, 159, 1)"></use><use xlink:href="#SvgjsPath1227" x="270" y="90" stroke="rgba(193, 18, 31, 1)"></use><use xlink:href="#SvgjsPath1227" x="270" y="150" stroke="rgba(255, 141, 150, 1)"></use><use xlink:href="#SvgjsPath1227" x="270" y="210" stroke="rgba(193, 18, 31, 1)"></use><use xlink:href="#SvgjsPath1226" x="270" y="270" stroke="rgba(193, 18, 31, 1)"></use><use xlink:href="#SvgjsPath1226" x="270" y="330" stroke="rgba(255, 151, 159, 1)"></use><use xlink:href="#SvgjsPath1226" x="270" y="390" stroke="rgba(255, 141, 150, 1)"></use><use xlink:href="#SvgjsPath1229" x="270" y="450" stroke="rgba(255, 141, 150, 1)"></use><use xlink:href="#SvgjsPath1227" x="270" y="510" stroke="rgba(193, 18, 31, 1)"></use><use xlink:href="#SvgjsPath1230" x="270" y="570" stroke="rgba(255, 151, 159, 1)" stroke-width="3"></use><use xlink:href="#SvgjsPath1229" x="330" y="30" stroke="rgba(255, 141, 150, 1)"></use><use xlink:href="#SvgjsPath1227" x="330" y="90" stroke="rgba(255, 141, 150, 1)"></use><use xlink:href="#SvgjsPath1229" x="330" y="150" stroke="rgba(255, 151, 159, 1)"></use><use xlink:href="#SvgjsPath1226" x="330" y="210" stroke="rgba(255, 141, 150, 1)"></use><use xlink:href="#SvgjsPath1227" x="330" y="270" stroke="rgba(193, 18, 31, 1)"></use><use xlink:href="#SvgjsPath1227" x="330" y="330" stroke="rgba(255, 141, 150, 1)"></use><use xlink:href="#SvgjsPath1227" x="330" y="390" stroke="rgba(193, 18, 31, 1)"></use><use xlink:href="#SvgjsPath1229" x="330" y="450" stroke="rgba(193, 18, 31, 1)"></use><use xlink:href="#SvgjsPath1231" x="330" y="510" stroke="rgba(255, 151, 159, 1)"></use><use xlink:href="#SvgjsPath1226" x="330" y="570" stroke="rgba(255, 151, 159, 1)"></use><use xlink:href="#SvgjsPath1228" x="390" y="30" stroke="rgba(193, 18, 31, 1)"></use><use xlink:href="#SvgjsPath1229" x="390" y="90" stroke="rgba(255, 141, 150, 1)"></use><use xlink:href="#SvgjsPath1231" x="390" y="150" stroke="rgba(193, 18, 31, 1)"></use><use xlink:href="#SvgjsPath1228" x="390" y="210" stroke="rgba(193, 18, 31, 1)"></use><use xlink:href="#SvgjsPath1231" x="390" y="270" stroke="rgba(255, 141, 150, 1)"></use><use xlink:href="#SvgjsPath1227" x="390" y="330" stroke="rgba(193, 18, 31, 1)"></use><use xlink:href="#SvgjsPath1226" x="390" y="390" stroke="rgba(193, 18, 31, 1)"></use><use xlink:href="#SvgjsPath1228" x="390" y="450" stroke="rgba(255, 151, 159, 1)"></use><use xlink:href="#SvgjsPath1227" x="390" y="510" stroke="rgba(255, 141, 150, 1)"></use><use xlink:href="#SvgjsPath1228" x="390" y="570" stroke="rgba(255, 141, 150, 1)"></use><use xlink:href="#SvgjsPath1226" x="450" y="30" stroke="rgba(255, 151, 159, 1)"></use><use xlink:href="#SvgjsPath1226" x="450" y="90" stroke="rgba(255, 141, 150, 1)"></use><use xlink:href="#SvgjsPath1226" x="450" y="150" stroke="rgba(255, 151, 159, 1)"></use><use xlink:href="#SvgjsPath1226" x="450" y="210" stroke="rgba(255, 151, 159, 1)"></use><use xlink:href="#SvgjsPath1226" x="450" y="270" stroke="rgba(193, 18, 31, 1)"></use><use xlink:href="#SvgjsPath1227" x="450" y="330" stroke="rgba(255, 141, 150, 1)"></use><use xlink:href="#SvgjsPath1228" x="450" y="390" stroke="rgba(193, 18, 31, 1)"></use><use xlink:href="#SvgjsPath1226" x="450" y="450" stroke="rgba(255, 141, 150, 1)"></use><use xlink:href="#SvgjsPath1227" x="450" y="510" stroke="rgba(193, 18, 31, 1)"></use><use xlink:href="#SvgjsPath1226" x="450" y="570" stroke="rgba(193, 18, 31, 1)"></use><use xlink:href="#SvgjsPath1226" x="510" y="30" stroke="rgba(255, 141, 150, 1)"></use><use xlink:href="#SvgjsPath1226" x="510" y="90" stroke="rgba(255, 141, 150, 1)"></use><use xlink:href="#SvgjsPath1228" x="510" y="150" stroke="rgba(193, 18, 31, 1)"></use><use xlink:href="#SvgjsPath1227" x="510" y="210" stroke="rgba(255, 151, 159, 1)"></use><use xlink:href="#SvgjsPath1228" x="510" y="270" stroke="rgba(255, 151, 159, 1)"></use><use xlink:href="#SvgjsPath1230" x="510" y="330" stroke="rgba(255, 141, 150, 1)" stroke-width="3"></use><use xlink:href="#SvgjsPath1226" x="510" y="390" stroke="rgba(193, 18, 31, 1)"></use><use xlink:href="#SvgjsPath1227" x="510" y="450" stroke="rgba(193, 18, 31, 1)"></use><use xlink:href="#SvgjsPath1228" x="510" y="510" stroke="rgba(255, 141, 150, 1)"></use><use xlink:href="#SvgjsPath1226" x="510" y="570" stroke="rgba(255, 141, 150, 1)"></use><use xlink:href="#SvgjsPath1227" x="570" y="30" stroke="rgba(255, 141, 150, 1)"></use><use xlink:href="#SvgjsPath1227" x="570" y="90" stroke="rgba(255, 141, 150, 1)"></use><use xlink:href="#SvgjsPath1226" x="570" y="150" stroke="rgba(255, 151, 159, 1)"></use><use xlink:href="#SvgjsPath1226" x="570" y="210" stroke="rgba(255, 151, 159, 1)"></use><use xlink:href="#SvgjsPath1227" x="570" y="270" stroke="rgba(255, 141, 150, 1)"></use><use xlink:href="#SvgjsPath1226" x="570" y="330" stroke="rgba(193, 18, 31, 1)"></use><use xlink:href="#SvgjsPath1227" x="570" y="390" stroke="rgba(255, 141, 150, 1)"></use><use xlink:href="#SvgjsPath1229" x="570" y="450" stroke="rgba(255, 141, 150, 1)"></use><use xlink:href="#SvgjsPath1227" x="570" y="510" stroke="rgba(255, 141, 150, 1)"></use><use xlink:href="#SvgjsPath1228" x="570" y="570" stroke="rgba(255, 141, 150, 1)"></use></g><defs><mask id="SvgjsMask1225"><rect width="560" height="560" fill="#ffffff"></rect></mask><path d="M-1 0 a1 1 0 1 0 2 0 a1 1 0 1 0 -2 0z" id="SvgjsPath1229"></path><path d="M-3 0 a3 3 0 1 0 6 0 a3 3 0 1 0 -6 0z" id="SvgjsPath1228"></path><path d="M-5 0 a5 5 0 1 0 10 0 a5 5 0 1 0 -10 0z" id="SvgjsPath1226"></path><path d="M2 -2 L-2 2z" id="SvgjsPath1231"></path><path d="M6 -6 L-6 6z" id="SvgjsPath1227"></path><path d="M30 -30 L-30 30z" id="SvgjsPath1230"></path></defs></svg>